<?xml version="1.0" encoding="UTF-8"?> <svg xmlns="http://www.w3.org/2000/svg" width="176" height="75" viewBox="0 0 176 75" fill="none"><g clip-path="url(#clip0_728_772)"><path d="M5.4291 64.7049V66.1326H9.5614V67.3487H5.4291V69.6576H4.00006V63.4829H10.3295V64.699H5.4291V64.7049Z" fill="white"></path><path d="M18.5644 69.663L16.7662 67.5656H14.5036V69.663H13.0805V63.4883H17.3974C18.9276 63.4883 20.0768 64.1874 20.0768 65.5269C20.0768 66.5786 19.3683 67.2307 18.3322 67.4657L20.2614 69.663H18.5525H18.5644ZM17.32 66.3964C18.0702 66.3964 18.624 66.2202 18.624 65.5328C18.624 64.8454 18.0702 64.6692 17.32 64.6692H14.4976V66.3964H17.32Z" fill="white"></path><path d="M29.5864 68.4821V69.663H23.1379V63.4883H29.4971V64.6692H24.561V65.9382H28.6813V67.1191H24.561V68.4762H29.5864V68.4821Z" fill="white"></path><path d="M39.3513 67.7952C39.3513 69.0114 38.1783 69.8574 35.9633 69.8574C34.3795 69.8574 33.0933 69.4167 32.1347 68.6119L32.9564 67.6483C33.7245 68.3475 34.7189 68.6706 35.9931 68.6706C37.2673 68.6706 37.9044 68.4297 37.9044 67.9186C37.9044 67.4075 37.2614 67.2665 35.8204 67.1431C34.0341 66.9962 32.3669 66.6026 32.3669 65.2807C32.3669 63.9588 33.7602 63.2891 35.6954 63.2891C37.0649 63.2891 38.2438 63.6239 39.0417 64.2349L38.2557 65.2161C37.565 64.6932 36.7195 64.4817 35.7013 64.4758C34.8499 64.4699 33.8138 64.6168 33.8138 65.1808C33.8138 65.7096 34.707 65.7625 35.9514 65.8623C37.9461 66.021 39.3513 66.4381 39.3513 67.7952Z" fill="white"></path><path d="M49.4141 63.4883V69.663H47.9851V67.1484H43.7218V69.663H42.2927V63.4883H43.7218V65.9147H47.9851V63.4883H49.4141Z" fill="white"></path><path d="M65.532 63.4883V69.663H64.1029V65.3683L61.358 68.6759H61.2865L58.5416 65.3683V69.663H57.1542V63.4883H58.7083L61.352 66.7548L64.0017 63.4883H65.532Z" fill="white"></path><path d="M75.3985 68.4821V69.663H68.95V63.4883H75.3092V64.6692H70.3731V65.9382H74.4935V67.1191H70.3731V68.4762H75.3985V68.4821Z" fill="white"></path><path d="M82.4068 66.5262L85.2828 69.6635H83.5322L81.5137 67.4779L79.4952 69.6635H77.8339L80.7039 66.5379L77.8815 63.4829H79.6321L81.609 65.6155L83.5679 63.4829H85.2411L82.4128 66.5203L82.4068 66.5262Z" fill="white"></path><path d="M88.2568 69.8094V63.6348H89.6859V69.8094H88.2568Z" fill="white"></path><path d="M98.3998 67.6361L99.7038 68.2823C99.1143 69.1577 97.9056 69.8627 96.2682 69.8627C93.9162 69.8627 92.3859 68.6348 92.3859 66.5844C92.3859 64.534 93.9162 63.3003 96.3277 63.3003C97.8996 63.3003 99.1083 64.017 99.68 64.8689L98.3641 65.5152C97.9175 64.8278 97.2387 64.5164 96.3098 64.5164C94.8272 64.5164 93.8447 65.2214 93.8447 66.5786C93.8447 67.9357 94.8272 68.6407 96.3098 68.6407C97.2387 68.6407 97.9294 68.3411 98.3938 67.6361H98.3998Z" fill="white"></path><path d="M107.707 68.3587H103.926L103.253 69.663H101.723L105.039 63.4883H106.605L109.922 69.663H108.374L107.701 68.3587H107.707ZM107.105 67.2131L105.807 64.6985L104.509 67.2131H107.099H107.105Z" fill="white"></path><path d="M119.698 63.4883V69.663H118.448L113.958 65.1979V69.663H112.571V63.4883H114.089L118.311 67.7242V63.4883H119.698Z" fill="white"></path><path d="M134.637 68.4121C134.012 69.2522 132.78 69.8573 131.077 69.8573C128.564 69.8573 127.034 68.6412 127.034 66.5791C127.034 64.5169 128.564 63.2949 131.077 63.2949C132.613 63.2949 133.703 63.8707 134.328 64.4699L133.208 65.2748C132.661 64.7461 132.029 64.4993 131.083 64.4993C129.445 64.4993 128.493 65.2043 128.493 66.5791C128.493 67.9538 129.475 68.6588 131.136 68.6588C132.077 68.6588 132.845 68.4591 133.292 67.9245V67.3252H130.934V66.1796H134.637V68.4121Z" fill="white"></path><path d="M143.242 69.663L141.444 67.5656H139.182V69.663H137.758V63.4883H142.075C143.606 63.4883 144.755 64.1874 144.755 65.5269C144.755 66.5786 144.046 67.2307 143.01 67.4657L144.939 69.663H143.231H143.242ZM141.998 66.3964C142.748 66.3964 143.302 66.2202 143.302 65.5328C143.302 64.8454 142.748 64.6692 141.998 64.6692H139.17V66.3964H141.998Z" fill="white"></path><path d="M147.815 69.663V63.4883H149.244V69.663H147.815Z" fill="white"></path><path d="M158.491 68.4468V69.663H152.638V63.4883H154.067V68.4468H158.491Z" fill="white"></path><path d="M167.065 68.4468V69.663H161.211V63.4883H162.64V68.4468H167.065Z" fill="white"></path><path d="M164.983 15.6133C163.767 13.8994 162.119 13.0425 160.025 13.0425C158.824 13.0425 157.681 13.1816 156.597 13.4453C155.513 13.709 154.502 14.1558 153.557 14.7856V19.9418C154.37 19.268 155.139 18.7993 155.865 18.5283C156.59 18.2573 157.432 18.1254 158.391 18.1254C159.263 18.1254 159.929 18.4843 160.391 19.1948C160.852 19.9052 161.079 20.8573 161.079 22.0438V24.5194C160.816 23.9847 160.398 23.5453 159.842 23.2084C159.285 22.8715 158.648 22.703 157.937 22.703C155.579 22.703 153.858 23.7284 152.752 25.7718C151.646 27.8226 151.097 31.0232 151.097 35.3811C151.097 39.3361 151.668 42.4416 152.818 44.6901C153.96 46.9386 155.447 48.0665 157.278 48.0665C158.26 48.0665 159.095 47.92 159.798 47.6271C160.493 47.3341 161.05 46.8947 161.453 46.316L162.039 47.7736H166.807V22.7763C166.807 19.7221 166.199 17.3344 164.99 15.6133H164.983ZM161.079 42.2145C160.911 42.5148 160.625 42.7785 160.222 43.0055C159.827 43.2326 159.417 43.3498 158.999 43.3498C158.238 43.3498 157.71 42.8737 157.41 41.9216C157.11 40.9694 156.956 38.8454 156.956 35.5569C156.956 32.7224 157.139 30.723 157.498 29.5511C157.857 28.3792 158.443 27.7933 159.256 27.7933C159.732 27.7933 160.12 27.9471 160.428 28.2547C160.735 28.5623 160.948 29.0164 161.072 29.617V42.2145H161.079Z" fill="white"></path><path d="M115.985 1.42626L106.829 32.3927L95.9238 0.0859375L89.354 2.30515L103.416 43.9575L107.269 55.3832L110.689 43.8184L122.635 3.39645L115.985 1.42626Z" fill="white"></path><path d="M173.618 45.9204C173.618 47.2387 172.556 48.2861 171.209 48.2861C169.861 48.2861 168.784 47.2387 168.784 45.9204C168.784 44.602 169.861 43.5693 171.223 43.5693C172.586 43.5693 173.618 44.602 173.618 45.9204ZM169.385 45.9204C169.385 46.9677 170.176 47.8027 171.223 47.8027C172.241 47.8173 173.018 46.9677 173.018 45.935C173.018 44.9023 172.241 44.0381 171.194 44.0381C170.147 44.0381 169.385 44.8877 169.385 45.9204ZM170.835 47.1435H170.286V44.7925C170.498 44.7632 170.806 44.7192 171.194 44.7192C171.641 44.7192 171.838 44.7925 172 44.9023C172.146 45.0049 172.241 45.1733 172.241 45.4077C172.241 45.6933 172.029 45.8838 171.751 45.9643V45.9936C171.978 46.0669 172.095 46.25 172.168 46.5649C172.241 46.9238 172.3 47.0556 172.344 47.1362H171.773C171.699 47.0483 171.655 46.8506 171.589 46.5649C171.546 46.3232 171.406 46.206 171.106 46.206H170.85V47.1362L170.835 47.1435ZM170.85 45.8252H171.106C171.406 45.8252 171.648 45.7226 171.648 45.4809C171.648 45.2685 171.487 45.1221 171.15 45.1221C171.004 45.1221 170.908 45.1367 170.85 45.1513V45.8252Z" fill="white"></path><path d="M123.968 20.6596C125.873 20.6596 127.418 19.1151 127.418 17.2099C127.418 15.3047 125.873 13.7603 123.968 13.7603C122.063 13.7603 120.518 15.3047 120.518 17.2099C120.518 19.1151 122.063 20.6596 123.968 20.6596Z" fill="white"></path><path d="M126.956 22.9521H120.972V48.0739H126.956V22.9521Z" fill="white"></path><path d="M147.383 3.41113H141.377V21.7801C141.114 21.2454 139.942 19.9637 138.235 19.9637C136.836 19.9637 134.551 19.9783 132.925 22.886C132.881 22.9593 132.837 23.0398 132.801 23.1204C132.464 23.7649 132.164 24.5413 131.9 25.4714C131.871 25.5886 131.834 25.7058 131.805 25.8303C131.651 26.4382 131.512 27.1121 131.402 27.8518C131.153 29.4851 131.006 31.4553 131.006 33.8283C131.006 46.9605 135.745 47.7368 137.576 47.7368C140.594 47.7368 141.348 46.565 141.751 45.9864L142.337 47.4439H147.405C147.456 47.4951 147.464 3.40381 147.39 3.40381L147.383 3.41113ZM141.377 41.8848C141.209 42.1851 140.923 42.4488 140.52 42.6758C140.125 42.9029 139.715 43.0201 139.297 43.0201C138.536 43.0201 138.008 42.544 137.708 41.5919C137.408 40.6397 136.997 36.8532 136.997 33.8722C136.997 30.8913 137.437 27.8518 137.796 26.6799C138.155 25.5081 138.741 24.9221 139.554 24.9221C140.03 24.9221 140.418 25.0759 140.725 25.3836C141.033 25.6912 141.245 26.1453 141.37 26.7458V41.8848H141.377Z" fill="white"></path><path d="M58.205 28.4818C56.352 26.138 55.246 24.5341 54.8945 23.6552C54.5356 22.7836 54.3525 21.8754 54.3525 20.9452C54.3525 20.1835 54.5063 19.5976 54.8066 19.1948C55.1069 18.7846 55.4951 18.5795 55.9565 18.5795C56.5058 18.5795 56.9306 18.8945 57.2455 19.5243C57.5531 20.1542 57.7069 20.9745 57.7069 21.9926H62.4237C62.4237 19.1728 61.8671 16.9902 60.7538 15.4521C59.6405 13.9141 58.0365 13.1523 55.9345 13.1523C54.8066 13.1523 53.8032 13.4087 52.9243 13.8994C52.2724 14.2656 51.6865 14.7563 51.1738 15.3862C49.9727 16.8803 49.3721 18.8725 49.3721 21.3774C49.3721 23.8822 49.6064 25.8158 50.0825 27.4564C50.5586 29.097 51.6792 31.0306 53.4589 33.2498C54.8578 35.0003 55.8613 36.3479 56.4765 37.3C57.0917 38.2522 57.3993 39.1311 57.3993 39.944C57.3993 40.8229 57.2528 41.4821 56.9672 41.9216C56.6816 42.361 56.2421 42.5807 55.6635 42.5807C55.0849 42.5807 54.6015 42.3024 54.2939 41.7311C53.9863 41.1672 53.8325 40.2663 53.8325 39.0285H49.1157C49.1157 42.0534 49.6797 44.3166 50.8076 45.8253C51.9355 47.3341 53.6127 48.0885 55.8466 48.0885C57.9193 48.0885 59.5453 47.2828 60.7318 45.6715C61.9183 44.0602 62.5116 41.8044 62.5116 38.9113C62.5116 37.0437 62.1966 35.3518 61.5741 33.843C60.9442 32.3343 59.8163 30.5472 58.1903 28.4818H58.205Z" fill="white"></path><path d="M88.9663 15.6133C87.7505 13.8994 86.1026 13.0425 84.0079 13.0425C82.8067 13.0425 81.6642 13.1816 80.5802 13.4453C79.4962 13.709 78.4782 14.1558 77.5407 14.7856V19.9418C78.1925 19.3998 78.8151 18.997 79.4083 18.7187C79.5548 18.6528 79.7013 18.5795 79.8405 18.5283C80.2946 18.3598 80.7926 18.2499 81.3346 18.184C81.6642 18.1474 82.0011 18.1181 82.3673 18.1181C83.2389 18.1181 83.9054 18.477 84.3668 19.1874C84.8282 19.8979 85.0552 20.85 85.0552 22.0365V24.5121C84.7843 23.9774 84.3741 23.538 83.8175 23.2011C83.2608 22.8642 82.6236 22.6957 81.9132 22.6957C79.5621 22.6957 77.8337 23.7211 76.7277 25.7645C75.6218 27.8153 75.0724 31.0159 75.0724 35.3738C75.0724 39.3288 75.6437 42.4343 76.7936 44.6828C77.9435 46.9313 79.423 48.0592 81.254 48.0592C82.2355 48.0592 83.0777 47.9127 83.7735 47.6197C84.4693 47.3268 85.026 46.8873 85.4288 46.3087L86.0147 47.7662H90.7827V22.7763C90.7827 19.9565 90.2627 17.7153 89.23 16.0381C89.1421 15.8989 89.0616 15.7524 88.9663 15.6206V15.6133ZM85.0626 42.2145C84.8941 42.5148 84.6085 42.7785 84.2057 43.0055C83.8101 43.2326 83.4 43.3498 82.9898 43.3498C82.2281 43.3498 81.7008 42.8737 81.4005 41.9216C81.1002 40.9694 80.9464 38.8454 80.9464 35.5569C80.9464 32.7224 81.1295 30.723 81.4884 29.5511C81.8473 28.3792 82.4332 27.7933 83.2389 27.7933C83.7149 27.7933 84.1104 27.9471 84.4181 28.2547C84.7257 28.5623 84.9381 29.0164 85.0626 29.617V42.2145Z" fill="white"></path><path d="M37.2946 13.3794C34.1012 13.3794 31.7429 14.7783 30.2121 17.5761C28.6887 20.3739 27.927 24.7245 27.927 30.6351C27.927 36.5456 28.7107 40.6838 30.278 43.5915C31.8454 46.4918 34.1891 47.942 37.2946 47.942C40.4 47.942 42.8463 46.5651 44.399 43.8112C45.9517 41.0573 46.7281 36.6702 46.7281 30.6351C46.7281 24.6 46.003 20.4399 44.5455 17.6127C43.0806 14.7856 40.671 13.3721 37.2946 13.3721V13.3794ZM39.4552 41.2551C39.111 42.7858 38.4005 43.5402 37.3312 43.5402C36.2033 43.5402 35.4855 42.8224 35.1632 41.3869C34.8483 39.9514 34.6872 36.4285 34.6872 30.8035C34.6872 25.1786 34.8337 21.4359 35.134 19.9784C35.4342 18.5209 36.1667 17.7885 37.3239 17.7885C38.4811 17.7885 39.2428 18.4843 39.5284 19.8906C39.8141 21.3041 39.9679 24.8856 39.9679 30.657C39.9679 36.4285 39.7921 39.7243 39.4479 41.2477L39.4552 41.2551Z" fill="white"></path><path d="M25.6052 4.19478C24.5212 2.83249 23.1223 1.79979 21.4378 1.11132C19.7386 0.415524 17.6951 0.0639648 15.3734 0.0639648C12.766 0.0639648 10.4808 0.554682 8.58389 1.51414C6.70159 2.47361 5.14155 3.93111 3.94039 5.85004C2.63669 7.94474 1.64793 10.7865 0.996083 14.2948C0.33691 17.8397 0 22.1536 0 27.112C0 30.8693 0.175779 34.2897 0.534662 37.2706C0.886221 40.2222 1.42088 42.8003 2.124 44.9536C3.27389 48.4912 4.92915 51.1205 7.04582 52.7685C9.15517 54.4018 11.9603 55.2367 15.3953 55.2367C18.4642 55.2367 20.8591 54.7313 22.5144 53.7353C24.1623 52.7465 25.5027 51.2158 26.5207 49.1943C26.8576 48.4619 27.1945 47.5976 27.5168 46.6601C27.7878 45.8838 28.0222 45.0049 28.2272 44.0527H19.409C19.0647 46.7261 18.552 47.4951 18.1858 47.832C17.5779 48.396 16.7064 48.6743 15.5931 48.6743C13.5057 48.6743 12.0702 47.019 11.3378 43.7598C10.6566 40.7349 10.3124 35.1393 10.3124 27.134C10.3124 19.1287 10.6054 13.7748 11.1913 11.1161C11.8285 8.20841 12.9857 6.73626 14.641 6.73626C16.2962 6.73626 17.3216 7.49064 17.7537 8.91153C18.1053 10.0907 18.2884 11.9071 18.3103 14.4632H28.6154C28.5788 12.3246 28.3224 10.413 27.861 8.75772C27.363 6.98528 26.6086 5.45453 25.6198 4.2021L25.6052 4.19478Z" fill="white"></path><path d="M71.7253 46.6162C71.3078 45.7666 71.0954 44.104 71.0954 41.6211V11.9291H74.6037V5.04438H71.0954V-0.36084H65.346V5.04438H62.16V11.8119H65.346V42.2144C65.346 46.6235 65.8147 49.8974 66.7449 52.0361C67.6824 54.1674 69.0593 55.2367 70.883 55.2367H74.113V47.8906C72.9338 47.8906 72.1354 47.4658 71.718 46.6162H71.7253Z" fill="white"></path></g><defs><clipPath id="clip0_728_772"><rect width="176" height="75" fill="white"></rect></clipPath></defs></svg> 