<?xml version="1.0" encoding="UTF-8"?> <svg xmlns="http://www.w3.org/2000/svg" width="206" height="207" viewBox="0 0 206 207" fill="none"><g clip-path="url(#clip0_728_877)"><path d="M103.013 0.605957C46.1182 0.605957 0 46.7242 0 103.619C0 160.514 46.1182 206.632 103.013 206.632C159.908 206.632 206.026 160.514 206.026 103.619C206.026 46.7242 159.882 0.605957 103.013 0.605957ZM13.7887 66.5374L84.2125 116.473L9.86764 77.9631C10.9323 74.042 12.2566 70.2248 13.7887 66.5374ZM118.178 131.144C9.84167 76.0674 69.5409 43.9197 69.5409 43.9197C35.5754 87.9605 118.178 131.144 118.178 131.144ZM92.4961 69.6535C83.1479 92.0634 100.416 111.098 112.491 121.017C59.3097 80.7416 82.7843 60.5649 90.6784 55.3454C86.991 59.5781 86.991 71.4972 86.991 71.4972L92.4961 69.6535ZM72.1376 168.252C41.7297 158.722 20.4624 142.518 11.6334 134.936C9.34829 128.236 7.76428 121.173 6.98525 113.902C9.08862 116.707 28.3565 141.194 77.2273 160.877C118.412 177.47 147.262 175.081 147.262 175.081C147.262 175.081 121.891 183.858 72.1376 168.252ZM174.631 141.947C155.13 137.922 117.269 126.47 106.285 97.205C94.8332 66.7192 118.282 59.2405 134.07 65.9921C134.434 66.1479 133.395 63.9147 132.019 60.1754C132.019 60.1754 131.136 55.6051 129.058 53.5277C125.683 49.3469 119.97 47.5811 119.424 46.0231C120.1 44.6728 119.061 44.5689 119.658 41.5307L115.711 43.5821L114.724 41.8683C114.724 41.8683 108.856 41.9202 108.336 41.0633C107.973 40.492 107.895 38.1549 107.895 38.1549L106.103 37.9472L102.753 37.8693C102.701 37.6356 102.26 36.8046 102 35.8698C101.793 35.1167 102 34.4416 102 33.7664L99.5593 33.299C99.5593 33.299 98.9361 30.884 98.9361 30.4686C96.6509 30.5984 92.3403 30.8581 92.3403 30.8581C92.3403 30.8581 91.2757 29.1961 90.8602 29.0663C86.7314 27.6381 83.2517 24.6518 82.5506 23.5872C82.5506 23.5872 83.7451 22.3407 84.4982 22.3148L83.9009 21.8474C78.6295 20.3672 69.6707 18.8871 67.7751 18.4975C65.9574 20.3153 60.2186 26.1839 60.2186 26.1839L49.9095 22.8861C50.8183 22.3148 52.3245 21.1462 53.6488 20.2114L59.6473 22.0811L66.9701 14.7582L88.0297 19.3285L90.4967 23.0159C89.3021 22.8341 88.627 23.4054 87.4585 23.1977C89.2243 24.6259 90.5226 25.2751 92.626 26.1839L93.5608 27.5602L101.767 27.0928C102.026 27.9757 101.948 29.3779 101.948 30.1569C102.546 30.7802 103.896 29.7415 104.415 30.4166C104.259 31.5852 104.467 33.5327 104.675 34.7272C106.207 34.4935 108.388 35.3245 109.894 35.0129C109.894 36.1035 110.102 37.298 110.18 38.3886C112.179 38.908 114.023 38.6743 115.815 38.1809L116.438 39.4533L122.67 36.3372C122.359 38.7781 123.008 41.6086 122.073 43.8678C124.254 46.5424 127.293 47.0098 129.526 49.243C132.953 52.6967 132.59 53.6315 133.758 56.8255C135.81 62.3826 138.303 67.1346 140.718 72.4839L141.263 76.1453C141.782 77.1321 142.847 76.457 142.899 76.8205C143.392 80.0405 143.574 81.1051 146.69 81.6245C146.69 81.6245 147.521 81.2609 148.378 84.6367C148.56 85.3898 148.378 88.1683 150.144 88.1683C152.585 88.1683 152.351 91.5181 153.65 93.1281C156.636 96.8414 154.74 102.996 158.116 98.9448C159.752 96.9713 161.232 91.3363 159.7 87.5191C159.259 86.4025 160.972 81.2609 160.427 80.1184C159.077 77.1581 158.713 73.6525 157.051 71.7828C154.481 68.8485 149.78 68.2512 150.897 67.1346C153.909 64.0964 149.936 60.3052 149.936 60.3052C148.742 58.3576 150.715 52.437 149.001 51.2425C147.885 50.4635 145.911 50.048 145.054 49.1911C143.029 47.1916 141.315 44.0236 141.523 40.6218C137.68 41.1672 138.199 36.7007 134.356 37.1422C134.797 34.3117 132.46 32.8316 130.071 31.9747C130.253 31.1697 129.759 29.9232 129.941 29.0923C129.24 29.2481 128.149 28.8066 127.474 28.9624C128.435 25.4568 124.099 22.2109 127.474 20.0037C126.28 17.7185 123.787 17.6666 121.502 17.4069C122.826 17.4069 123.164 16.8356 124.047 16.55C122.878 15.5373 121.268 15.6152 119.736 16.0566C119.788 15.5373 119.632 14.914 119.684 14.3687C116.62 13.2521 108.856 13.5118 111.868 18.1859C107.947 19.4064 105.921 15.8229 102.104 16.4721C100.91 11.6162 91.3276 17.5108 90.7563 11.4344C89.0165 11.2267 88.0038 12.2654 87.3546 13.9273C85.7965 12.6808 83.7711 12.9924 82.3169 14.3168C79.9798 12.4991 76.8897 13.8494 74.3708 13.6157C72.5272 13.4599 70.7094 13.4079 68.8917 13.2262L70.0602 12.7587C80.3174 9.04539 91.4055 6.99396 102.961 6.99396C156.298 6.99396 199.56 50.2298 199.56 103.567C199.56 117.589 196.574 130.885 191.199 142.908C187.433 143.193 181.772 143.193 174.579 141.869L174.631 141.947Z" fill="white"></path></g><defs><clipPath id="clip0_728_877"><rect width="206" height="206" fill="white" transform="translate(0 0.605957)"></rect></clipPath></defs></svg> 